<svg width="33" height="32" viewBox="0 0 33 32" fill="none" xmlns="http://www.w3.org/2000/svg">
<path d="M10.9003 2.66699H22.1003C26.367 2.66699 29.8337 6.13366 29.8337 10.4003V21.6003C29.8337 23.6513 29.0189 25.6183 27.5686 27.0686C26.1183 28.5189 24.1513 29.3337 22.1003 29.3337H10.9003C6.63366 29.3337 3.16699 25.867 3.16699 21.6003V10.4003C3.16699 8.34932 3.98175 6.38231 5.43203 4.93203C6.88231 3.48175 8.84932 2.66699 10.9003 2.66699ZM10.6337 5.33366C9.36062 5.33366 8.13972 5.83937 7.23955 6.73955C6.33937 7.63972 5.83366 8.86062 5.83366 10.1337V21.867C5.83366 24.5203 7.98033 26.667 10.6337 26.667H22.367C23.64 26.667 24.8609 26.1613 25.7611 25.2611C26.6613 24.3609 27.167 23.14 27.167 21.867V10.1337C27.167 7.48033 25.0203 5.33366 22.367 5.33366H10.6337ZM23.5003 7.33366C23.9424 7.33366 24.3663 7.50925 24.6788 7.82181C24.9914 8.13437 25.167 8.5583 25.167 9.00033C25.167 9.44235 24.9914 9.86628 24.6788 10.1788C24.3663 10.4914 23.9424 10.667 23.5003 10.667C23.0583 10.667 22.6344 10.4914 22.3218 10.1788C22.0093 9.86628 21.8337 9.44235 21.8337 9.00033C21.8337 8.5583 22.0093 8.13437 22.3218 7.82181C22.6344 7.50925 23.0583 7.33366 23.5003 7.33366ZM16.5003 9.33366C18.2684 9.33366 19.9641 10.036 21.2144 11.2863C22.4646 12.5365 23.167 14.2322 23.167 16.0003C23.167 17.7684 22.4646 19.4641 21.2144 20.7144C19.9641 21.9646 18.2684 22.667 16.5003 22.667C14.7322 22.667 13.0365 21.9646 11.7863 20.7144C10.536 19.4641 9.83366 17.7684 9.83366 16.0003C9.83366 14.2322 10.536 12.5365 11.7863 11.2863C13.0365 10.036 14.7322 9.33366 16.5003 9.33366ZM16.5003 12.0003C15.4395 12.0003 14.422 12.4218 13.6719 13.1719C12.9218 13.922 12.5003 14.9395 12.5003 16.0003C12.5003 17.0612 12.9218 18.0786 13.6719 18.8288C14.422 19.5789 15.4395 20.0003 16.5003 20.0003C17.5612 20.0003 18.5786 19.5789 19.3288 18.8288C20.0789 18.0786 20.5003 17.0612 20.5003 16.0003C20.5003 14.9395 20.0789 13.922 19.3288 13.1719C18.5786 12.4218 17.5612 12.0003 16.5003 12.0003Z" fill="#4B5563"/>
</svg>
