<svg width="32" height="32" viewBox="0 0 32 32" fill="none" xmlns="http://www.w3.org/2000/svg">
<path d="M26.071 4H5.929C4.864 4 4 4.864 4 5.929V26.071C4 27.136 4.864 28 5.929 28H26.071C27.136 28 28 27.136 28 26.071V5.929C28 4.864 27.136 4 26.071 4ZM26.071 26.08C12.637 26.077 5.92 26.074 5.92 26.071C5.923 12.637 5.926 5.92 5.929 5.92C19.363 5.923 26.08 5.926 26.08 5.929C26.077 19.363 26.074 26.08 26.071 26.08ZM7.558 12.997H11.119V24.451H7.558V12.997ZM9.34 11.431C10.477 11.431 11.404 10.507 11.404 9.367C11.404 9.09595 11.3506 8.82756 11.2469 8.57714C11.1432 8.32673 10.9911 8.09919 10.7995 7.90753C10.6078 7.71587 10.3803 7.56384 10.1299 7.46011C9.87944 7.35639 9.61105 7.303 9.34 7.303C9.06895 7.303 8.80056 7.35639 8.55014 7.46011C8.29973 7.56384 8.07219 7.71587 7.88053 7.90753C7.68887 8.09919 7.53684 8.32673 7.43311 8.57714C7.32939 8.82756 7.276 9.09595 7.276 9.367C7.273 10.507 8.197 11.431 9.34 11.431ZM16.909 18.784C16.909 17.29 17.194 15.844 19.045 15.844C20.869 15.844 20.896 17.551 20.896 18.88V24.451H24.454V18.169C24.454 15.085 23.788 12.712 20.185 12.712C18.454 12.712 17.293 13.663 16.816 14.563H16.768V12.997H13.351V24.451H16.909V18.784Z" fill="#4B5563"/>
</svg>
