<svg width="32" height="32" viewBox="0 0 32 32" fill="none" xmlns="http://www.w3.org/2000/svg">
<path d="M5 5.52005V27.2486C5.00015 27.2957 5.01421 27.3417 5.04042 27.3809C5.06663 27.4201 5.10383 27.4507 5.14734 27.4688C5.19086 27.4869 5.23876 27.4918 5.28504 27.4828C5.33132 27.4738 5.37391 27.4514 5.40748 27.4183L16.7212 16.3849L5.40748 5.35032C5.37391 5.31722 5.33132 5.29477 5.28504 5.28578C5.23876 5.2768 5.19086 5.28167 5.14734 5.2998C5.10383 5.31793 5.06663 5.3485 5.04042 5.38768C5.01421 5.42686 5.00015 5.47291 5 5.52005ZM21.465 11.8512L7.279 4.03555L7.27016 4.03057C7.02578 3.89788 6.79357 4.22851 6.99371 4.42091L18.1139 15.0541L21.465 11.8512ZM6.99482 28.3488C6.79357 28.5412 7.02578 28.8718 7.27126 28.7391L7.28011 28.7342L21.465 20.9185L18.1139 17.7146L6.99482 28.3488ZM27.1918 15.0026L23.2304 12.8209L19.5056 16.3849L23.2304 19.9471L27.1918 17.7671C28.2694 17.1716 28.2694 15.5981 27.1918 15.0026Z" fill="#4B5563"/>
</svg>
