<svg width="33" height="32" viewBox="0 0 33 32" fill="none" xmlns="http://www.w3.org/2000/svg">
<g clip-path="url(#clip0_421_867)">
<path d="M16.5003 5.33301C17.6403 5.33301 18.8097 5.36234 19.943 5.41034L21.2817 5.47434L22.563 5.55034L23.763 5.63167L24.859 5.71701C26.0484 5.80804 27.1676 6.3156 28.0197 7.15039C28.8718 7.98518 29.4022 9.09373 29.5177 10.281L29.571 10.8477L29.671 12.061C29.7643 13.3183 29.8337 14.689 29.8337 15.9997C29.8337 17.3103 29.7643 18.681 29.671 19.9383L29.571 21.1517C29.5537 21.3463 29.5363 21.5343 29.5177 21.7183C29.4022 22.9058 28.8716 24.0145 28.0192 24.8494C27.1668 25.6842 26.0473 26.1916 24.8577 26.2823L23.7643 26.3663L22.5643 26.449L21.2817 26.525L19.943 26.589C18.7961 26.6388 17.6483 26.6646 16.5003 26.6663C15.3524 26.6646 14.2045 26.6388 13.0577 26.589L11.719 26.525L10.4377 26.449L9.23766 26.3663L8.14166 26.2823C6.95226 26.1913 5.83306 25.6837 4.98096 24.849C4.12885 24.0142 3.59842 22.9056 3.48299 21.7183L3.42966 21.1517L3.32966 19.9383C3.22771 18.6279 3.17345 17.3141 3.16699 15.9997C3.16699 14.689 3.23633 13.3183 3.32966 12.061L3.42966 10.8477C3.44699 10.653 3.46433 10.465 3.48299 10.281C3.59838 9.09394 4.12861 7.98556 4.98045 7.1508C5.83228 6.31604 6.95116 5.80834 8.14033 5.71701L9.23499 5.63167L10.435 5.55034L11.7177 5.47434L13.0563 5.41034C14.2037 5.36052 15.3519 5.33473 16.5003 5.33301ZM16.5003 7.99967C15.4003 7.99967 14.2683 8.02901 13.167 8.07434L11.863 8.13701L10.611 8.21034L9.43499 8.29034L8.35766 8.37434C7.79143 8.41452 7.25772 8.65387 6.85112 9.04998C6.44451 9.44608 6.19129 9.97336 6.13633 10.5383C5.98033 12.1503 5.83366 14.157 5.83366 15.9997C5.83366 17.8423 5.98033 19.849 6.13633 21.461C6.24966 22.6237 7.17233 23.5277 8.35766 23.625L9.43499 23.7077L10.611 23.7877L11.863 23.8623L13.167 23.925C14.2683 23.9703 15.4003 23.9997 16.5003 23.9997C17.6003 23.9997 18.7323 23.9703 19.8337 23.925L21.1377 23.8623L22.3897 23.789L23.5657 23.709L24.643 23.625C25.2092 23.5848 25.7429 23.3455 26.1495 22.9494C26.5561 22.5533 26.8094 22.026 26.8643 21.461C27.0203 19.849 27.167 17.8423 27.167 15.9997C27.167 14.157 27.0203 12.1503 26.8643 10.5383C26.8094 9.97336 26.5561 9.44608 26.1495 9.04998C25.7429 8.65387 25.2092 8.41452 24.643 8.37434L23.5657 8.29167L22.3897 8.21167L21.1377 8.13701L19.8337 8.07434C18.7232 8.02656 17.6118 8.00167 16.5003 7.99967ZM13.8337 12.7663C13.8336 12.636 13.8653 12.5077 13.9261 12.3924C13.987 12.2772 14.075 12.1785 14.1827 12.1051C14.2903 12.0316 14.4142 11.9855 14.5437 11.9709C14.6732 11.9562 14.8043 11.9734 14.9257 12.021L15.0337 12.0743L20.6337 15.3063C20.7452 15.3707 20.8395 15.461 20.9087 15.5696C20.9778 15.6782 21.0197 15.8019 21.0308 15.9301C21.042 16.0584 21.022 16.1875 20.9726 16.3063C20.9231 16.4252 20.8458 16.5304 20.747 16.613L20.6337 16.693L15.0337 19.9263C14.9208 19.9917 14.7937 20.0285 14.6634 20.0335C14.5331 20.0384 14.4035 20.0115 14.286 19.955C14.1685 19.8985 14.0666 19.8141 13.9891 19.7091C13.9117 19.6042 13.8611 19.482 13.8417 19.353L13.8337 19.233V12.7663Z" fill="#4B5563"/>
</g>
<defs>
<clipPath id="clip0_421_867">
<rect width="32" height="32" fill="white" transform="translate(0.5)"/>
</clipPath>
</defs>
</svg>
